<?xml version="1.0" ?><!DOCTYPE svg  PUBLIC '-//W3C//DTD SVG 1.1//EN'  'http://www.w3.org/Graphics/SVG/1.1/DTD/svg11.dtd'><svg height="32" version="1.1" viewBox="0 0 32 32" width="32" xmlns="http://www.w3.org/2000/svg" xmlns:xlink="http://www.w3.org/1999/xlink"><g/><path d="M25.852 20.854c-0.127 0-0.252-0.049-0.35-0.145-0.193-0.193-0.193-0.506 0-0.699l2.875-2.873c0.191-0.193 0.506-0.193 0.697 0 0.193 0.193 0.193 0.506 0 0.699l-2.873 2.873c-0.096 0.096-0.222 0.145-0.349 0.145z" fill="#000000"/><path d="M18.359 18.213c-2.953 0-4.409-1.461-4.469-1.523-0.092-0.094-0.143-0.221-0.141-0.353s0.056-0.257 0.15-0.348l2.291-2.215c0.197-0.189 0.51-0.185 0.699 0.011 0.191 0.197 0.185 0.509-0.011 0.699l-1.887 1.824c0.497 0.334 1.471 0.826 2.959 0.904 0.008-0.064 0.012-0.117 0.014-0.164 0.027-0.32 0.064-0.49 0.346-0.894 0.156-0.226 0.463-0.281 0.688-0.125s0.281 0.464 0.125 0.688c-0.158 0.227-0.158 0.236-0.172 0.41-0.012 0.148-0.027 0.352-0.104 0.695-0.048 0.231-0.277 0.399-0.488 0.391z" fill="#000000"/><path d="M0.733 31.916c-0.159 0-0.308-0.078-0.4-0.205-0.093-0.129-0.119-0.295-0.069-0.445 0.53-1.604 1.189-2.828 1.905-3.545 0.657-0.656 11.612-11.612 11.612-11.612 0.108-0.108 0.26-0.159 0.412-0.141 0.152 0.020 0.286 0.108 0.364 0.24 0.001 0 0.775 1.119 3.91 1.119 0.162 0 0.314 0.080 0.406 0.213l0.822 1.191c0.145 0.211 0.105 0.5-0.092 0.662l-11.55 9.537c-0.161 0.127-3.811 2.986-7.32 2.986zM14.12 17.166c-1.896 1.898-10.667 10.67-11.252 11.254-0.498 0.5-0.992 1.359-1.417 2.463 2.952-0.352 5.95-2.697 5.982-2.723l11.193-9.24-0.42-0.609c-2.354-0.041-3.536-0.682-4.086-1.145z" fill="#000000"/><path d="M26.842 8.252c-0.127 0-0.254-0.048-0.35-0.145-0.193-0.193-0.193-0.506 0-0.699 0.408-0.408 0.754-0.771 0.865-1.098 0.045-0.134 0.139-0.413-0.373-0.925-0.674-0.674-1.016-0.515-2.023 0.492-0.193 0.193-0.506 0.193-0.699 0s-0.193-0.506 0-0.699c0.779-0.78 1.957-1.957 3.422-0.492 0.629 0.627 0.832 1.28 0.609 1.94-0.178 0.529-0.605 0.984-1.102 1.481-0.097 0.097-0.222 0.145-0.349 0.145z" fill="#000000"/><path d="M19.277 7.94c-0.127 0-0.254-0.048-0.35-0.145l-2.934-2.933c-0.193-0.193-0.193-0.506 0-0.699 0.193-0.193 0.506-0.193 0.699 0l2.934 2.933c0.191 0.193 0.191 0.506 0 0.699-0.097 0.097-0.224 0.145-0.349 0.145z" fill="#000000"/><path d="M24.293 8.448c-0.096 0-0.191-0.036-0.264-0.108l-2.258-2.258c-0.143-0.145-0.143-0.379 0-0.524 0.145-0.145 0.381-0.145 0.525 0l2.258 2.258c0.145 0.145 0.145 0.379 0 0.524-0.072 0.072-0.167 0.108-0.261 0.108z" fill="#000000"/><path d="M18.178 9.92c-0.127 0-0.252-0.048-0.35-0.145l-3.372-3.372c-0.193-0.193-0.193-0.505 0-0.699 0.193-0.193 0.506-0.193 0.699 0l3.373 3.372c0.193 0.193 0.193 0.506 0 0.699-0.096 0.097-0.223 0.145-0.35 0.145z" fill="#000000"/><path d="M16.072 10.824c-0.126 0-0.252-0.047-0.348-0.144l-2.948-2.93c-0.193-0.192-0.194-0.505-0.002-0.699 0.193-0.192 0.506-0.194 0.699-0.002l2.948 2.93c0.193 0.192 0.194 0.505 0.002 0.699-0.097 0.097-0.224 0.146-0.351 0.146z" fill="#000000"/><path d="M22.877 20.938c-0.127 0-0.254-0.049-0.35-0.146-0.193-0.191-0.193-0.506 0-0.697l5.932-5.933c0.193-0.193 0.506-0.193 0.699 0s0.193 0.506 0 0.699l-5.934 5.931c-0.095 0.097-0.222 0.146-0.347 0.146z" fill="#000000"/><path d="M25.602 23.662c-0.131 0-0.258-0.051-0.35-0.145l-12.835-12.834c-1.263 1.827-3.356 2.938-5.605 2.938-3.756-0.001-6.812-3.056-6.812-6.81 0-3.756 3.056-6.811 6.811-6.811 3.53 0 6.442 2.7 6.778 6.144l3.765-3.766c0.289-0.288 0.785-0.291 1.090-0.016l3.096 3.096 1.35-1.351c0.223-0.22 0.623-0.195 0.916 0.099l4.705 4.705c0.121 0.12 0.264 0.312 0.264 0.544-0.002 0.132-0.062 0.282-0.156 0.375l-1.893 1.892 5.156 5.156c0.193 0.194 0.193 0.506 0 0.7l-5.93 5.939c-0.095 0.094-0.22 0.145-0.35 0.145zM12.327 9.4c0.13 0 0.256 0.051 0.35 0.145l12.925 12.924 5.23-5.24-5.156-5.156c-0.092-0.093-0.145-0.218-0.145-0.35s0.053-0.257 0.145-0.35l1.949-1.947-4.326-4.328-1.41 1.41c-0.186 0.185-0.514 0.185-0.699 0l-3.283-3.283-4.449 4.45c-0.144 0.146-0.363 0.184-0.552 0.101-0.187-0.084-0.303-0.276-0.291-0.48 0.009-0.159 0.019-0.317 0.019-0.484 0-3.21-2.612-5.822-5.822-5.822-3.21 0-5.822 2.612-5.822 5.822 0 3.21 2.612 5.821 5.822 5.821 2.108 0 4.057-1.142 5.084-2.979 0.076-0.135 0.21-0.227 0.364-0.249 0.021-0.004 0.044-0.005 0.067-0.005z" fill="#000000"/><path d="M10.011 6.983h-7.043c-0.273 0-0.494-0.221-0.494-0.494s0.221-0.494 0.494-0.494h7.043c0.273 0 0.494 0.221 0.494 0.494 0 0.274-0.221 0.494-0.494 0.494z" fill="#000000"/><path d="M6.49 10.505c-0.273 0-0.494-0.221-0.494-0.494v-7.043c0-0.273 0.221-0.494 0.494-0.494s0.494 0.221 0.494 0.494v7.042c0 0.274-0.221 0.495-0.494 0.495z" fill="#000000"/></svg>